<svg width="247" height="60" viewBox="0 0 247 60" fill="none" xmlns="http://www.w3.org/2000/svg">
<g clip-path="url(#clip0_405_1720)">
<path fill-rule="evenodd" clip-rule="evenodd" d="M30 0C13.4315 0 0 13.4315 0 30C0 46.5685 13.4315 60 30 60H217C233.569 60 247 46.5685 247 30C247 13.4315 233.569 0 217 0H30ZM30 2C14.536 2 2 14.536 2 30C2 45.464 14.536 58 30 58H217C232.464 58 245 45.464 245 30C245 14.536 232.464 2 217 2H30Z" fill="#FF7516"/>
<circle opacity="0.2" cx="32" cy="30" r="19" fill="black"/>
<path d="M26.565 41.128V36.392L28.965 36.232V24.552L26.629 24.84V19.88L35.173 18.6V36.232L37.445 36.392V41.128L32.005 40.872L26.565 41.128Z" fill="white"/>
<path d="M37.5367 24V22.656H40.3847V21.848L37.4567 21.584V19.424L38.4807 18.4H41.8567V19.744H39.0087V20.472L41.9367 20.736V22.976L40.9127 24H37.5367ZM43.7819 24V19.744H42.4139V18.4H46.7019V19.744H45.3339V24H43.7819Z" fill="white"/>
<path d="M10.0576 34.49V31.43L19.5976 27.92V31.034L13.7656 32.96L19.5976 34.886V38L10.0576 34.49ZM53.9495 31.43V34.49L44.4095 38V34.886L50.2415 32.96L44.4095 31.034V27.92L53.9495 31.43Z" fill="white"/>
<path fill-rule="evenodd" clip-rule="evenodd" d="M68.6573 17.2857C69.9021 16.1331 71.6463 15.0023 73.6998 15L73.9857 15.2857C73.988 17.3503 72.8597 19.096 71.7074 20.3406V22.7143L71.422 23H69.7098L69.5083 22.9166L68.9381 22.3457L68.933 22.3451L66.6501 20.0594L66.6495 20.0543L66.0839 19.488L66 19.2857V17.5714L66.2854 17.2857H68.6573ZM68.0792 17.8571H66.5707V19.168L66.8093 19.4057C67.194 18.859 67.6185 18.3414 68.0792 17.8571ZM69.5842 22.1869L69.8239 22.4286H71.1338V20.9206C70.6493 21.3806 70.1314 21.8038 69.5842 22.1869ZM71.6911 17.9752C71.7355 18.1982 71.6896 18.4297 71.5635 18.6189H71.5629C71.4369 18.8079 71.2409 18.9391 71.0182 18.9835C70.7955 19.0279 70.5644 18.982 70.3755 18.8557C70.1867 18.7295 70.0557 18.5333 70.0113 18.3103C69.967 18.0874 70.0129 17.8559 70.139 17.6668C70.2651 17.4777 70.461 17.3465 70.6838 17.302C70.9065 17.2575 71.1378 17.3035 71.3267 17.4297C71.5156 17.556 71.6467 17.7522 71.6911 17.9752Z" fill="white"/>
<path d="M67.7122 22.4286V23H66V21.2857H66.5707V22.4286H67.7122Z" fill="white"/>
<path fill-rule="evenodd" clip-rule="evenodd" d="M81.5284 15.3989C81.0088 15.1962 80.4013 15.0948 79.7061 15.0948H76.9253V22.8427H79.7061C80.4013 22.8427 81.0088 22.7344 81.5284 22.5177C82.0481 22.301 82.48 22.011 82.824 21.6475C83.1681 21.2841 83.4245 20.8787 83.593 20.4313C83.7685 19.984 83.8563 19.5297 83.8563 19.0684V18.8377C83.8563 18.3555 83.7685 17.8907 83.593 17.4433C83.4245 16.989 83.1681 16.5871 82.824 16.2376C82.48 15.8812 82.0481 15.6016 81.5284 15.3989ZM80.8648 16.6465C80.5558 16.5347 80.2012 16.4788 79.8009 16.4788H78.421V21.4588H79.8009C80.2012 21.4588 80.5558 21.3994 80.8648 21.2806C81.1808 21.1548 81.4477 20.98 81.6654 20.7564C81.8831 20.5327 82.0481 20.2706 82.1604 19.97C82.2798 19.6625 82.3395 19.3235 82.3395 18.9531C82.3395 18.5686 82.2798 18.2262 82.1604 17.9256C82.0481 17.6181 81.8831 17.356 81.6654 17.1393C81.4477 16.9226 81.1808 16.7584 80.8648 16.6465Z" fill="white"/>
<path fill-rule="evenodd" clip-rule="evenodd" d="M87.6395 23C87.1479 23 86.7161 22.9161 86.3439 22.7484C85.9787 22.5806 85.6732 22.357 85.4275 22.0774C85.1887 21.7908 85.0061 21.4728 84.8797 21.1233C84.7603 20.7738 84.7007 20.4174 84.7007 20.0539V19.8547C84.7007 19.4773 84.7603 19.1138 84.8797 18.7643C85.0061 18.4079 85.1887 18.0934 85.4275 17.8208C85.6732 17.5412 85.9752 17.321 86.3333 17.1603C86.6915 16.9925 87.1058 16.9086 87.5763 16.9086C88.1943 16.9086 88.7104 17.0449 89.1247 17.3175C89.5461 17.5831 89.8621 17.9361 90.0727 18.3764C90.2834 18.8098 90.3887 19.2781 90.3887 19.7813V20.3055H86.089C86.1141 20.5252 86.1639 20.7279 86.2385 20.9136C86.3509 21.1862 86.5229 21.4029 86.7547 21.5636C86.9864 21.7174 87.2814 21.7943 87.6395 21.7943C87.9976 21.7943 88.2891 21.7244 88.5138 21.5846C88.7385 21.4378 88.8824 21.2596 88.9456 21.0499H90.2939C90.2097 21.4413 90.0482 21.7838 89.8094 22.0774C89.5706 22.3709 89.2652 22.5981 88.893 22.7589C88.5278 22.9196 88.11 23 87.6395 23ZM86.2385 18.974C86.1836 19.1074 86.142 19.2542 86.114 19.4144H88.9901C88.9643 19.2331 88.9214 19.0689 88.8614 18.9216C88.756 18.663 88.5945 18.4638 88.3768 18.324C88.1662 18.1842 87.8993 18.1143 87.5763 18.1143C87.2533 18.1143 86.9794 18.1877 86.7547 18.3345C86.53 18.4813 86.3579 18.6945 86.2385 18.974Z" fill="white"/>
<path d="M90.9179 17.1078L92.7086 22.8008H95.0575L96.606 17.1078H95.1945L94.0294 21.6056H93.7807L92.4242 17.1078H90.9179Z" fill="white"/>
<path d="M106.558 22.329C106.923 22.7624 107.435 22.979 108.096 22.979H108.159C108.601 22.979 108.97 22.8812 109.265 22.6855C109.56 22.4898 109.781 22.1997 109.928 21.8153C109.969 21.7091 110.004 21.5957 110.034 21.4751V22.8008H111.192V17.0973H109.728V20.4628C109.728 20.8332 109.619 21.1268 109.402 21.3435C109.191 21.5602 108.917 21.6685 108.58 21.6685C108.243 21.6685 107.976 21.5671 107.78 21.3644C107.583 21.1548 107.485 20.8752 107.485 20.5257V17.0973H106.02V20.3999C106.02 21.2526 106.199 21.8957 106.558 22.329Z" fill="white"/>
<path d="M114.665 18.5756C114.447 18.7923 114.338 19.0859 114.338 19.4563V22.8008H112.874V17.1078H114.033V18.5107C114.067 18.3647 114.109 18.2291 114.159 18.1038C114.314 17.7124 114.542 17.4189 114.844 17.2232C115.153 17.0275 115.536 16.9296 115.992 16.9296H116.055C116.737 16.9296 117.253 17.1498 117.604 17.5901C117.955 18.0235 118.13 18.6735 118.13 19.5402V22.8008H116.666V19.4144C116.666 19.0649 116.565 18.7818 116.361 18.5651C116.164 18.3485 115.89 18.2401 115.539 18.2401C115.181 18.2401 114.89 18.352 114.665 18.5756Z" fill="white"/>
<path d="M120.884 22.675C121.228 22.8078 121.664 22.8742 122.19 22.8742H123.012V21.6266H122.117C121.836 21.6266 121.618 21.5532 121.464 21.4064C121.316 21.2526 121.242 21.0359 121.242 20.7564L121.248 18.1772H123.012V17.1078H121.25L121.253 15.5037H119.884L119.88 17.1078H118.967V18.1772H119.878L119.873 20.662C119.873 21.2142 119.957 21.6545 120.126 21.983C120.294 22.3045 120.547 22.5352 120.884 22.675Z" fill="white"/>
<path d="M102.873 22.8008V19.6241H99.3234V22.8008H97.8277V15.1473H99.3234V18.3135H102.873V15.1473H104.369V22.8008H102.873Z" fill="white"/>
<rect x="124.916" y="21.6761" width="4.63551" height="1.19626" fill="#FF7516"/>
<path d="M69.744 41V31H72.016V41H69.744ZM66.368 31.32V29.32H75.392V31.32H66.368ZM82.3499 41.304C81.2939 41.304 80.3765 41.1173 79.5979 40.744C78.8299 40.3707 78.1899 39.8853 77.6779 39.288C77.1765 38.68 76.7979 38.0293 76.5419 37.336C76.2965 36.632 76.1739 35.9547 76.1739 35.304V34.952C76.1739 34.2373 76.3019 33.528 76.5579 32.824C76.8139 32.1093 77.1979 31.464 77.7099 30.888C78.2325 30.312 78.8779 29.8533 79.6459 29.512C80.4139 29.16 81.3152 28.984 82.3499 28.984C83.3739 28.984 84.2699 29.16 85.0379 29.512C85.8059 29.8533 86.4459 30.312 86.9579 30.888C87.4805 31.464 87.8699 32.1093 88.1259 32.824C88.3819 33.528 88.5099 34.2373 88.5099 34.952V35.304C88.5099 35.9547 88.3819 36.632 88.1259 37.336C87.8805 38.0293 87.5019 38.68 86.9899 39.288C86.4885 39.8853 85.8485 40.3707 85.0699 40.744C84.3019 41.1173 83.3952 41.304 82.3499 41.304ZM82.3499 39.192C82.9472 39.192 83.4805 39.0853 83.9499 38.872C84.4299 38.6587 84.8352 38.3653 85.1659 37.992C85.5072 37.608 85.7632 37.176 85.9339 36.696C86.1152 36.2053 86.2059 35.688 86.2059 35.144C86.2059 34.5573 86.1152 34.0187 85.9339 33.528C85.7632 33.0373 85.5072 32.6107 85.1659 32.248C84.8352 31.8853 84.4299 31.6027 83.9499 31.4C83.4699 31.1973 82.9365 31.096 82.3499 31.096C81.7525 31.096 81.2139 31.1973 80.7339 31.4C80.2539 31.6027 79.8432 31.8853 79.5019 32.248C79.1712 32.6107 78.9152 33.0373 78.7339 33.528C78.5632 34.0187 78.4779 34.5573 78.4779 35.144C78.4779 35.688 78.5632 36.2053 78.7339 36.696C78.9152 37.176 79.1712 37.608 79.5019 37.992C79.8432 38.3653 80.2539 38.6587 80.7339 38.872C81.2139 39.0853 81.7525 39.192 82.3499 39.192ZM96.1936 41.304C95.1376 41.304 94.2203 41.1173 93.4416 40.744C92.6736 40.3707 92.0336 39.8853 91.5216 39.288C91.0203 38.68 90.6416 38.0293 90.3856 37.336C90.1403 36.632 90.0176 35.9547 90.0176 35.304V34.952C90.0176 34.2373 90.1456 33.528 90.4016 32.824C90.6576 32.1093 91.0416 31.464 91.5536 30.888C92.0763 30.312 92.7216 29.8533 93.4896 29.512C94.2576 29.16 95.159 28.984 96.1936 28.984C97.2176 28.984 98.1136 29.16 98.8816 29.512C99.6496 29.8533 100.29 30.312 100.802 30.888C101.324 31.464 101.714 32.1093 101.97 32.824C102.226 33.528 102.354 34.2373 102.354 34.952V35.304C102.354 35.9547 102.226 36.632 101.97 37.336C101.724 38.0293 101.346 38.68 100.834 39.288C100.332 39.8853 99.6923 40.3707 98.9136 40.744C98.1456 41.1173 97.239 41.304 96.1936 41.304ZM96.1936 39.192C96.791 39.192 97.3243 39.0853 97.7936 38.872C98.2736 38.6587 98.679 38.3653 99.0096 37.992C99.351 37.608 99.607 37.176 99.7776 36.696C99.959 36.2053 100.05 35.688 100.05 35.144C100.05 34.5573 99.959 34.0187 99.7776 33.528C99.607 33.0373 99.351 32.6107 99.0096 32.248C98.679 31.8853 98.2736 31.6027 97.7936 31.4C97.3136 31.1973 96.7803 31.096 96.1936 31.096C95.5963 31.096 95.0576 31.1973 94.5776 31.4C94.0976 31.6027 93.687 31.8853 93.3456 32.248C93.015 32.6107 92.759 33.0373 92.5776 33.528C92.407 34.0187 92.3216 34.5573 92.3216 35.144C92.3216 35.688 92.407 36.2053 92.5776 36.696C92.759 37.176 93.015 37.608 93.3456 37.992C93.687 38.3653 94.0976 38.6587 94.5776 38.872C95.0576 39.0853 95.5963 39.192 96.1936 39.192ZM104.549 41V29.32H106.821V41H104.549ZM106.501 41V39H111.541V41H106.501ZM122.334 41.304C121.278 41.304 120.361 41.1173 119.582 40.744C118.814 40.3707 118.174 39.8853 117.662 39.288C117.161 38.68 116.782 38.0293 116.526 37.336C116.281 36.632 116.158 35.9547 116.158 35.304V34.952C116.158 34.2373 116.286 33.528 116.542 32.824C116.798 32.1093 117.182 31.464 117.694 30.888C118.217 30.312 118.862 29.8533 119.63 29.512C120.398 29.16 121.3 28.984 122.334 28.984C123.358 28.984 124.254 29.16 125.022 29.512C125.79 29.8533 126.43 30.312 126.942 30.888C127.465 31.464 127.854 32.1093 128.11 32.824C128.366 33.528 128.494 34.2373 128.494 34.952V35.304C128.494 35.9547 128.366 36.632 128.11 37.336C127.865 38.0293 127.486 38.68 126.974 39.288C126.473 39.8853 125.833 40.3707 125.054 40.744C124.286 41.1173 123.38 41.304 122.334 41.304ZM122.334 39.192C122.932 39.192 123.465 39.0853 123.934 38.872C124.414 38.6587 124.82 38.3653 125.15 37.992C125.492 37.608 125.748 37.176 125.918 36.696C126.1 36.2053 126.19 35.688 126.19 35.144C126.19 34.5573 126.1 34.0187 125.918 33.528C125.748 33.0373 125.492 32.6107 125.15 32.248C124.82 31.8853 124.414 31.6027 123.934 31.4C123.454 31.1973 122.921 31.096 122.334 31.096C121.737 31.096 121.198 31.1973 120.718 31.4C120.238 31.6027 119.828 31.8853 119.486 32.248C119.156 32.6107 118.9 33.0373 118.718 33.528C118.548 34.0187 118.462 34.5573 118.462 35.144C118.462 35.688 118.548 36.2053 118.718 36.696C118.9 37.176 119.156 37.608 119.486 37.992C119.828 38.3653 120.238 38.6587 120.718 38.872C121.198 39.0853 121.737 39.192 122.334 39.192ZM130.69 41V29.32H132.962V41H130.69ZM132.642 36.136V34.216L137.314 34.2V36.12L132.642 36.136ZM132.642 31.24V29.32H137.538V31.24H132.642ZM145.4 41V31H147.672V41H145.4ZM142.024 31.32V29.32H151.048V31.32H142.024ZM160.526 41V29.32H162.798V41H160.526ZM152.862 41V29.32H155.134V41H152.862ZM154.718 36.152V34.152H160.942V36.152H154.718ZM165.674 41V29.32H167.898V41H165.674ZM167.578 41V39.08H172.874V41H167.578ZM167.578 36.024V34.104H172.458V36.024H167.578ZM167.578 31.24V29.32H172.746V31.24H167.578ZM180.579 41L177.603 29.32H179.955L182.371 39.48L181.747 39.112H183.347L182.643 39.48L184.547 29.768H186.499L184.131 41H180.579ZM187.555 41L184.979 29.768H187.011L189.203 39.48L188.515 39.112H190.083L189.475 39.48L191.603 29.32H193.827L191.171 41H187.555ZM195.643 41V29.32H197.867V41H195.643ZM197.547 41V39.08H202.843V41H197.547ZM197.547 36.024V34.104H202.427V36.024H197.547ZM197.547 31.24V29.32H202.715V31.24H197.547ZM205.174 41V29.32H207.398V41H205.174ZM207.078 41V39.08H212.374V41H207.078ZM207.078 36.024V34.104H211.958V36.024H207.078ZM207.078 31.24V29.32H212.246V31.24H207.078ZM222.274 41L218.002 35.544H216.354L221.426 29.32H224.034L219.458 34.92L219.394 33.8L225.042 41H222.274ZM214.706 41V29.32H216.978V41H214.706Z" fill="white"/>
</g>
<defs>
<clipPath id="clip0_405_1720">
<rect width="247" height="60" rx="30" fill="white"/>
</clipPath>
</defs>
</svg>
